HIERARCHY
ROOT Hips
{
  OFFSET 0.0273292 -0.436096 0.279869
  CHANNELS 6 Xposition Yposition Zposition Zrotation Xrotation Yrotation
  JOINT LHipJoint
  {
    OFFSET 0 0 0
    CHANNELS 6 Xposition Yposition Zposition Zrotation Xrotation Yrotation
    JOINT LeftUpLeg
    {
      OFFSET 1.36306 -1.79463 0
      CHANNELS 6 Xposition Yposition Zposition Zrotation Xrotation Yrotation
      JOINT LeftLeg
      {
        OFFSET 2.44807 -6.72613 0.000295034
        CHANNELS 6 Xposition Yposition Zposition Zrotation Xrotation Yrotation
        JOINT LeftFoot
        {
          OFFSET 2.5622 -7.03959 3.59965e-05
          CHANNELS 6 Xposition Yposition Zposition Zrotation Xrotation Yrotation
          JOINT LeftToeBase
          {
            OFFSET 0.15764 -0.43311 2.32255
            CHANNELS 6 Xposition Yposition Zposition Zrotation Xrotation Yrotation
            End Site
            {
              OFFSET 0 0 0
            }
          }
        }
      }
    }
  }
  JOINT RHipJoint
  {
    OFFSET 0 0 0
    CHANNELS 6 Xposition Yposition Zposition Zrotation Xrotation Yrotation
    JOINT RightUpLeg
    {
      OFFSET -1.30552 -1.79463 0
      CHANNELS 6 Xposition Yposition Zposition Zrotation Xrotation Yrotation
      JOINT RightLeg
      {
        OFFSET -2.54234 -6.98562 -0.000396375
        CHANNELS 6 Xposition Yposition Zposition Zrotation Xrotation Yrotation
        JOINT RightFoot
        {
          OFFSET -2.56826 -7.05623 -4.47982e-05
          CHANNELS 6 Xposition Yposition Zposition Zrotation Xrotation Yrotation
          JOINT RightToeBase
          {
            OFFSET -0.16473 -0.45259 2.36315
            CHANNELS 6 Xposition Yposition Zposition Zrotation Xrotation Yrotation
            End Site
            {
              OFFSET 0 0 0
            }
          }
        }
      }
    }
  }
  JOINT LowerBack
  {
    OFFSET 0 0 0
    CHANNELS 6 Xposition Yposition Zposition Zrotation Xrotation Yrotation
    JOINT Spine
    {
      OFFSET 0.0282699 2.03559 0
      CHANNELS 6 Xposition Yposition Zposition Zrotation Xrotation Yrotation
      JOINT Spine1
      {
        OFFSET 0.05672 2.04885 -0.04275
        CHANNELS 6 Xposition Yposition Zposition Zrotation Xrotation Yrotation
        JOINT Neck
        {
          OFFSET 0 0 0
          CHANNELS 6 Xposition Yposition Zposition Zrotation Xrotation Yrotation
          JOINT Neck1
          {
            OFFSET -0.05417 1.74624 0.17202
            CHANNELS 6 Xposition Yposition Zposition Zrotation Xrotation Yrotation
            JOINT Head
            {
              OFFSET 0.10407 1.76136 -0.12397
              CHANNELS 6 Xposition Yposition Zposition Zrotation Xrotation Yrotation
              End Site
              {
                OFFSET 0 0 0
              }
            }
          }
        }
        JOINT LeftShoulder
        {
          OFFSET 0 0 0
          CHANNELS 6 Xposition Yposition Zposition Zrotation Xrotation Yrotation
          JOINT LeftArm
          {
            OFFSET 3.36241 1.20089 -0.311211
            CHANNELS 6 Xposition Yposition Zposition Zrotation Xrotation Yrotation
            JOINT LeftForeArm
            {
              OFFSET 4.983 0.000197398 0.000166057
              CHANNELS 6 Xposition Yposition Zposition Zrotation Xrotation Yrotation
              JOINT LeftHand
              {
                OFFSET 3.48356 0 1.87849e-05
                CHANNELS 6 Xposition Yposition Zposition Zrotation Xrotation Yrotation
                JOINT LeftFingerBase
                {
                  OFFSET 0 0 0
                  CHANNELS 6 Xposition Yposition Zposition Zrotation Xrotation Yrotation
                  JOINT LeftHandIndex1
                  {
                    OFFSET 0.71526 0 0
                    CHANNELS 6 Xposition Yposition Zposition Zrotation Xrotation Yrotation
                    End Site
                    {
                      OFFSET 0 0 0
                    }
                  }
                }
                JOINT LThumb
                {
                  OFFSET 0 0 0
                  CHANNELS 6 Xposition Yposition Zposition Zrotation Xrotation Yrotation
                  End Site
                  {
                    OFFSET 0 0 0
                  }
                }
              }
            }
          }
        }
        JOINT RightShoulder
        {
          OFFSET 0 0 0
          CHANNELS 6 Xposition Yposition Zposition Zrotation Xrotation Yrotation
          JOINT RightArm
          {
            OFFSET -3.1366 1.37405 -0.404651
            CHANNELS 6 Xposition Yposition Zposition Zrotation Xrotation Yrotation
            JOINT RightForeArm
            {
              OFFSET -5.2419 -5.8808e-05 -0.000165864
              CHANNELS 6 Xposition Yposition Zposition Zrotation Xrotation Yrotation
              JOINT RightHand
              {
                OFFSET -3.44417 0 -2.00002e-05
                CHANNELS 6 Xposition Yposition Zposition Zrotation Xrotation Yrotation
                JOINT RightFingerBase
                {
                  OFFSET 0 0 0
                  CHANNELS 6 Xposition Yposition Zposition Zrotation Xrotation Yrotation
                  JOINT RightHandIndex1
                  {
                    OFFSET -0.62253 0 0
                    CHANNELS 6 Xposition Yposition Zposition Zrotation Xrotation Yrotation
                    End Site
                    {
                      OFFSET 0 0 0
                    }
                  }
                }
                JOINT RThumb
                {
                  OFFSET 0 0 0
                  CHANNELS 6 Xposition Yposition Zposition Zrotation Xrotation Yrotation
                  End Site
                  {
                    OFFSET 0 0 0
                  }
                }
              }
            }
          }
        }
      }
    }
  }
}
MOTION
Frames:	7
Frame Time:	0.00833333
-0.0251334 4.5183 1.02971 0.33298 12.1211 -0.0699026 0 0 0 6.83322e-17 -4.77083e-15 1.2424e-17 1.36306 -1.79463 -4.93821e-08 16.0205 -69.9651 22.3073 2.44722 -6.72645 -0.000195997 -108.626 64.0747 128.484 2.5622 -7.03959 4.21036e-05 -8.84456 -11.4333 -12.814 0.15764 -0.43311 2.32255 -1.59028e-15 6.36111e-15 6.36111e-15 0 0 0 6.83322e-17 -4.77083e-15 1.2424e-17 -1.30552 -1.79463 -4.93821e-08 -6.41468 -51.434 -18.5984 -2.54226 -6.98564 -6.16099e-06 52.3087 68.9782 -68.7322 -2.56826 -7.05623 3.66983e-05 8.85633 -1.86208 9.10866 -0.16473 -0.45259 2.36315 -9.54166e-15 6.36111e-15 -6.36111e-15 0 0 0 6.83322e-17 -4.77083e-15 1.2424e-17 0.0282701 2.03559 1.59717e-07 -0.302138 -9.45599 -0.0813313 0.05672 2.04885 -0.04275 -1.55301e-18 0 -0 0 0 0 -6.21202e-18 0 -0 -0.05417 1.74624 0.17202 0.805285 -30.5798 2.77505 0.10407 1.76136 -0.12397 -1.98785e-16 0 -0 0 0 0 -6.21202e-18 0 -0 3.36241 1.20089 -0.31121 -81.5937 -23.9634 -123.369 4.983 -0.000170137 -5.61035e-05 -1.7753 -3.82243 -49.773 3.48356 6.68475e-06 -4.09686e-06 9.88853e-05 -6.36111e-15 0.000106174 0 0 0 3.97569e-16 3.18055e-15 -0 0.71526 -8.88178e-16 0 0 0 -1.59028e-15 0 0 0 3.97569e-16 3.18055e-15 -0 0 0 0 -6.21202e-18 0 -0 -3.1366 1.37404 -0.404649 78.1929 -22.828 121.999 -5.2419 -0.000183688 -3.89308e-05 0.527443 -2.23404 26.4718 -3.44417 3.50504e-06 -2.60298e-05 -6.87017e-05 0 -0.000392721 0 0 0 1.59028e-15 0 -3.18055e-15 -0.62253 0 -8.88178e-16 3.53113e-31 6.36111e-15 -3.18055e-15 0 0 0 1.59028e-15 0 -3.18055e-15 
-0.0253702 4.51587 1.03271 0.216711 12.1216 -0.0454899 0 0 0 -4.19311e-17 -3.18055e-15 1.2424e-17 1.36306 -1.79463 -4.93821e-08 15.6457 -69.6771 21.9676 2.44722 -6.72645 -0.000195997 -108.844 63.9897 128.715 2.5622 -7.03959 4.21036e-05 -8.92864 -11.6341 -12.8942 0.15764 -0.43311 2.32255 3.18055e-15 -4.77083e-15 -0 0 0 0 -4.19311e-17 -3.18055e-15 1.2424e-17 -1.30552 -1.79463 -4.93821e-08 -5.9712 -51.0957 -18.4788 -2.54226 -6.98564 -6.16099e-06 52.7227 69.0283 -69.1658 -2.56826 -7.05623 3.66983e-05 8.92582 -2.25776 9.25963 -0.16473 -0.45259 2.36315 -6.36111e-15 3.18055e-15 -0 0 0 0 -4.19311e-17 -3.18055e-15 1.2424e-17 0.0282701 2.03559 1.59717e-07 -0.150791 -9.07351 -0.292785 0.05672 2.04885 -0.04275 0 0 -0 0 0 0 -3.10601e-18 0 -0 -0.05417 1.74624 0.17202 1.22258 -30.5694 2.98756 0.10407 1.76136 -0.12397 -4.41391e-32 3.18055e-15 7.95139e-16 0 0 0 -3.10601e-18 0 -0 3.36241 1.20089 -0.31121 -81.5022 -23.9439 -123.336 4.983 -0.000170137 -5.61035e-05 -1.68742 -3.75459 -48.4809 3.48356 6.68475e-06 -4.09686e-06 9.16375e-05 -3.18055e-15 -1.24439e-05 0 0 0 3.97569e-16 -3.18055e-15 -1.59028e-15 0.71526 -8.88178e-16 0 7.95139e-16 3.18055e-15 -1.59028e-15 0 0 0 3.97569e-16 -3.18055e-15 -1.59028e-15 0 0 0 -3.10601e-18 0 -0 -3.1366 1.37404 -0.404649 78.1929 -22.828 121.999 -5.2419 -0.000183688 -3.89308e-05 0.557684 -2.29576 27.2548 -3.44417 3.50504e-06 -2.60298e-05 -7.16645e-05 -3.18055e-15 -0.000402444 0 0 0 0 3.18055e-15 -0 -0.62253 8.88178e-16 0 1.59028e-15 6.36111e-15 -3.18055e-15 0 0 0 0 3.18055e-15 -0 
-0.0255961 4.51362 1.0357 0.100443 12.1221 -0.0210771 0 0 0 -1.3977e-17 -3.18055e-15 6.21202e-18 1.36306 -1.79463 -4.93821e-08 15.2766 -69.3832 21.6343 2.44722 -6.72645 -0.000195997 -109.047 63.9098 128.93 2.5622 -7.03959 4.21036e-05 -9.01588 -11.8565 -12.9848 0.15764 -0.43311 2.32255 1.11319e-14 0 -0 0 0 0 -1.3977e-17 -3.18055e-15 6.21202e-18 -1.30552 -1.79463 -4.93821e-08 -5.53047 -50.7542 -18.3619 -2.54226 -6.98564 -6.16099e-06 53.1035 69.0733 -69.5643 -2.56826 -7.05623 3.66983e-05 8.99887 -2.66149 9.41478 -0.16473 -0.45259 2.36315 -4.77083e-15 -6.36111e-15 6.36111e-15 0 0 0 -1.3977e-17 -3.18055e-15 6.21202e-18 0.0282701 2.03559 1.59717e-07 0.01447 -8.61163 -0.53334 0.05672 2.04885 -0.04275 -2.48481e-17 3.97569e-16 1.98785e-16 0 0 0 -1.86361e-17 3.97569e-16 1.98785e-16 -0.05417 1.74624 0.17202 1.63954 -30.5588 3.19953 0.10407 1.76136 -0.12397 -1.98785e-16 0 -0 0 0 0 -1.86361e-17 3.97569e-16 1.98785e-16 3.36241 1.20089 -0.31121 -81.4108 -23.9245 -123.302 4.983 -0.000170137 -5.61035e-05 -1.58905 -3.66751 -46.9689 3.48356 6.68475e-06 -4.09686e-06 8.30006e-05 0 -0.000159491 0 0 0 7.95139e-16 0 -0 0.71526 0 8.88178e-16 -8.82781e-32 3.18055e-15 1.59028e-15 0 0 0 7.95139e-16 0 -0 0 0 0 -1.86361e-17 3.97569e-16 1.98785e-16 -3.1366 1.37404 -0.404649 78.1929 -22.828 121.999 -5.2419 -0.000183688 -3.89308e-05 0.594567 -2.36597 28.1629 -3.44417 3.50504e-06 -2.60298e-05 -7.21489e-05 -3.18055e-15 -0.000411302 0 0 0 -4.77083e-15 -6.36111e-15 6.36111e-15 -0.62253 8.88178e-16 0 -1.59028e-15 -6.36111e-15 -0 0 0 0 -4.77083e-15 -6.36111e-15 6.36111e-15 
-0.025806 4.51197 1.03866 -0.0158266 12.1226 0.0033358 0 0 0 -6.40615e-18 0 -0 1.36306 -1.79463 -4.93821e-08 14.9189 -69.0825 21.3095 2.44722 -6.72645 -0.000195997 -109.231 63.8366 129.125 2.5622 -7.03959 4.21036e-05 -9.10458 -12.0995 -13.0853 0.15764 -0.43311 2.32255 4.77083e-15 -7.95139e-15 -1.27222e-14 0 0 0 -6.40615e-18 0 -0 -1.30552 -1.79463 -4.93821e-08 -5.09721 -50.409 -18.2493 -2.54226 -6.98564 -6.16099e-06 53.4433 69.1125 -69.9193 -2.56826 -7.05623 3.66983e-05 9.07563 -3.07365 9.57418 -0.16473 -0.45259 2.36315 -1.59028e-15 0 3.18055e-15 0 0 0 -6.40615e-18 0 -0 0.0282701 2.03559 1.59717e-07 0.197256 -8.14952 -0.785186 0.05672 2.04885 -0.04275 -1.2424e-17 7.95139e-16 -0 0 0 0 -1.2424e-17 0 -0 -0.05417 1.74624 0.17202 2.05693 -30.5477 3.41243 0.10407 1.76136 -0.12397 0 3.18055e-15 -0 0 0 0 -1.2424e-17 0 -0 3.36241 1.20089 -0.31121 -81.3193 -23.905 -123.268 4.983 -0.000170137 -5.61035e-05 -1.48973 -3.5678 -45.3693 3.48356 6.68475e-06 -4.09686e-06 7.57693e-05 3.18055e-15 -0.000284632 0 0 0 -3.53113e-31 6.36111e-15 3.18055e-15 0.71526 0 0 7.95139e-16 -3.18055e-15 -1.59028e-15 0 0 0 -3.53113e-31 6.36111e-15 3.18055e-15 0 0 0 -1.2424e-17 0 -0 -3.1366 1.37404 -0.404649 78.1929 -22.828 121.999 -5.2419 -0.000183688 -3.89308e-05 0.635149 -2.43894 29.1209 -3.44417 3.50504e-06 -2.60298e-05 -7.25798e-05 0 -0.00041775 0 0 0 -3.18055e-15 3.18055e-15 -0 -0.62253 8.88178e-16 -1.77636e-15 -3.18055e-15 -3.18055e-15 -0 0 0 0 -3.18055e-15 3.18055e-15 -0 
-0.0259946 4.51133 1.0416 -0.132096 12.123 0.0277488 0 0 0 -2.64011e-17 -3.18055e-15 3.10601e-18 1.36306 -1.79463 -4.93821e-08 14.5779 -68.7744 20.9953 2.44722 -6.72645 -0.000195997 -109.394 63.7712 129.297 2.5622 -7.03959 4.21036e-05 -9.19306 -12.362 -13.1949 0.15764 -0.43311 2.32255 -3.18055e-15 6.36111e-15 3.18055e-15 0 0 0 -2.64011e-17 -3.18055e-15 3.10601e-18 -1.30552 -1.79463 -4.93821e-08 -4.67608 -50.0601 -18.1427 -2.54226 -6.98564 -6.16099e-06 53.7344 69.1453 -70.2227 -2.56826 -7.05623 3.66983e-05 9.15625 -3.49467 9.73789 -0.16473 -0.45259 2.36315 7.95139e-15 0 -0 0 0 0 -2.64011e-17 -3.18055e-15 3.10601e-18 0.0282701 2.03559 1.59717e-07 0.399272 -7.7664 -1.03078 0.05672 2.04885 -0.04275 4.96962e-17 0 -0 0 0 0 1.2424e-17 7.95139e-16 -0 -0.05417 1.74624 0.17202 2.47548 -30.5363 3.62772 0.10407 1.76136 -0.12397 -2.98177e-16 -6.36111e-15 -1.98785e-16 0 0 0 1.2424e-17 7.95139e-16 -0 3.36241 1.20089 -0.31121 -81.2278 -23.8855 -123.235 4.983 -0.000170137 -5.61035e-05 -1.39625 -3.46711 -43.8141 3.48356 6.68475e-06 -4.09686e-06 7.27378e-05 -9.54166e-15 -0.000337531 0 0 0 7.95139e-16 3.18055e-15 1.59028e-15 0.71526 0 4.44089e-16 7.95139e-16 -6.36111e-15 -0 0 0 0 7.95139e-16 3.18055e-15 1.59028e-15 0 0 0 1.2424e-17 7.95139e-16 -0 -3.1366 1.37404 -0.404649 78.1929 -22.828 121.999 -5.2419 -0.000183688 -3.89308e-05 0.675711 -2.50956 30.0541 -3.44417 3.50504e-06 -2.60298e-05 -7.53821e-05 3.18055e-15 -0.000420243 0 0 0 1.59028e-15 -3.18055e-15 -0 -0.62253 -8.88178e-16 0 -1.59028e-15 3.18055e-15 3.18055e-15 0 0 0 1.59028e-15 -3.18055e-15 -0 
-0.0261631 4.51135 1.04452 -0.248366 12.1235 0.0521618 0 0 0 -2.64011e-17 0 -6.21202e-18 1.36306 -1.79463 -4.93821e-08 14.2519 -68.4586 20.6917 2.44722 -6.72645 -0.000195997 -109.534 63.714 129.446 2.5622 -7.03959 4.21036e-05 -9.28405 -12.6445 -13.3144 0.15764 -0.43311 2.32255 -3.18055e-15 0 -0 0 0 0 -2.64011e-17 0 -6.21202e-18 -1.30552 -1.79463 -4.93821e-08 -4.26523 -49.7071 -18.0416 -2.54226 -6.98564 -6.16099e-06 53.9888 69.1734 -70.4861 -2.56826 -7.05623 3.66983e-05 9.23753 -3.92453 9.90605 -0.16473 -0.45259 2.36315 -3.18055e-15 -6.36111e-15 3.18055e-15 0 0 0 -2.64011e-17 0 -6.21202e-18 0.0282701 2.03559 1.59717e-07 0.625836 -7.45563 -1.26732 0.05672 2.04885 -0.04275 -7.45443e-17 1.59028e-15 -3.97569e-16 0 0 0 -7.45443e-17 7.95139e-16 -1.98785e-16 -0.05417 1.74624 0.17202 2.89643 -30.5243 3.84785 0.10407 1.76136 -0.12397 -2.98177e-16 6.36111e-15 -1.98785e-16 0 0 0 -7.45443e-17 7.95139e-16 -1.98785e-16 3.36241 1.20089 -0.31121 -81.1364 -23.8661 -123.201 4.983 -0.000170137 -5.61035e-05 -1.30794 -3.37115 -42.3252 3.48356 6.68475e-06 -4.09686e-06 7.48585e-05 3.18055e-15 -0.00030195 0 0 0 -7.95139e-16 3.18055e-15 -3.18055e-15 0.71526 0 8.88178e-16 1.59028e-15 -6.36111e-15 -0 0 0 0 -7.95139e-16 3.18055e-15 -3.18055e-15 0 0 0 -7.45443e-17 7.95139e-16 -1.98785e-16 -3.1366 1.37404 -0.404649 78.1929 -22.828 121.999 -5.2419 -0.000183688 -3.89308e-05 0.715422 -2.57702 30.9499 -3.44417 3.50504e-06 -2.60298e-05 -8.30317e-05 -3.18055e-15 -0.000413132 0 0 0 -1.59028e-15 0 6.36111e-15 -0.62253 -8.88178e-16 -8.88178e-16 -1.59028e-15 3.18055e-15 6.36111e-15 0 0 0 -1.59028e-15 0 6.36111e-15 
-0.0263135 4.51152 1.04741 -0.364637 12.124 0.0765749 0 0 0 -3.41661e-17 0 -0 1.36306 -1.79463 -4.93821e-08 13.9393 -68.1354 20.3993 2.44722 -6.72645 -0.000195997 -109.655 63.6643 129.575 2.5622 -7.03959 4.21036e-05 -9.38021 -12.9472 -13.4438 0.15764 -0.43311 2.32255 -1.59028e-15 -3.18055e-15 -6.36111e-15 0 0 0 -3.41661e-17 0 -0 -1.30552 -1.79463 -4.93821e-08 -3.86303 -49.3504 -17.9453 -2.54226 -6.98564 -6.16099e-06 54.2051 69.197 -70.7087 -2.56826 -7.05623 3.66983e-05 9.31737 -4.36299 10.0787 -0.16473 -0.45259 2.36315 1.59028e-15 3.18055e-15 -6.36111e-15 0 0 0 -3.41661e-17 0 -0 0.0282701 2.03559 1.59717e-07 0.873455 -7.18424 -1.50368 0.05672 2.04885 -0.04275 -2.48481e-17 1.59028e-15 -0 0 0 0 -7.45443e-17 7.95139e-16 -0 -0.05417 1.74624 0.17202 3.31903 -30.5119 4.07134 0.10407 1.76136 -0.12397 -6.95746e-16 6.36111e-15 -1.98785e-16 0 0 0 -7.45443e-17 7.95139e-16 -0 3.36241 1.20089 -0.31121 -81.0449 -23.8466 -123.168 4.983 -0.000170137 -5.61035e-05 -1.22145 -3.27466 -40.8367 3.48356 6.68475e-06 -4.09686e-06 7.95239e-05 0 -0.000214522 0 0 0 -1.59028e-15 0 -3.18055e-15 0.71526 8.88178e-16 0 -0 -3.18055e-15 -0 0 0 0 -1.59028e-15 0 -3.18055e-15 0 0 0 -7.45443e-17 7.95139e-16 -0 -3.1366 1.37404 -0.404649 78.1929 -22.828 121.999 -5.2419 -0.000183688 -3.89308e-05 0.756258 -2.64367 31.8458 -3.44417 3.50504e-06 -2.60298e-05 -9.36255e-05 -3.18055e-15 -0.00039349 0 0 0 1.59028e-15 -6.36111e-15 6.36111e-15 -0.62253 -1.77636e-15 -8.88178e-16 1.59028e-15 -9.54166e-15 6.36111e-15 0 0 0 1.59028e-15 -6.36111e-15 6.36111e-15 
